<?xml version="1.0" encoding="UTF-8" standalone="no"?>
<!-- Created with Inkscape (http://www.inkscape.org/) -->

<svg
   width="44.151955mm"
   height="45.542393mm"
   viewBox="0 0 166.87353 172.12873"
   version="1.1"
   id="svg1"
   xml:space="preserve"
   xmlns:xlink="http://www.w3.org/1999/xlink"
   xmlns="http://www.w3.org/2000/svg"
   xmlns:svg="http://www.w3.org/2000/svg"><defs
     id="defs1"><linearGradient
       id="linearGradient4"><stop
         style="stop-color:#5013ff;stop-opacity:1;"
         offset="0"
         id="stop4" /><stop
         style="stop-color:#fb5151;stop-opacity:1;"
         offset="1"
         id="stop5" /></linearGradient><linearGradient
       xlink:href="#linearGradient4"
       id="linearGradient5"
       x1="14.127536"
       y1="390.06528"
       x2="1111.7267"
       y2="390.06528"
       gradientUnits="userSpaceOnUse" /><linearGradient
       xlink:href="#linearGradient4"
       id="linearGradient2"
       gradientUnits="userSpaceOnUse"
       x1="14.127536"
       y1="390.06528"
       x2="1111.7267"
       y2="390.06528" /></defs><g
     id="layer1"
     transform="translate(-536.30987,-304.00095)"><a
       id="a4"><g
         id="g4"
         style="fill:url(#linearGradient5)"><path
           style="fill:url(#linearGradient2);stroke-width:1.15704"
           d="m 613.95824,475.85502 c -18.46376,-1.01903 -35.11867,-7.5142 -48.86821,-19.05788 -15.83382,-13.29357 -26.154,-34.00804 -28.44481,-57.09379 -0.44839,-4.51871 -0.44677,-15.39706 0.003,-19.74669 1.78896,-17.30271 7.81623,-32.77746 17.84242,-45.80952 10.92205,-14.19651 28.32568,-24.78129 46.76028,-28.43929 8.71227,-1.72881 21.10931,-2.20656 29.75009,-1.14655 15.6461,1.91936 28.97808,7.41184 41.20991,16.97755 9.93115,7.76653 17.805,18.11185 23.23003,30.5217 10.32331,23.6144 10.32331,52.23794 0,75.85238 -7.55733,17.28736 -19.7821,30.47098 -36.03527,38.86175 -10.80752,5.57941 -21.38134,8.36882 -34.49229,9.09917 -2.90077,0.16158 -5.61057,0.27545 -6.02172,0.25299 -0.41113,-0.0223 -2.63109,-0.14477 -4.93337,-0.27182 z m 8.16192,-10.22483 c 0.37786,-0.24862 0.94915,-0.90276 1.26958,-1.45366 0.57312,-0.98529 0.58256,-2.19786 0.58256,-74.18981 0,-71.99195 -0.009,-73.2045 -0.58256,-74.18978 -0.87981,-1.51259 -1.89295,-2.06558 -3.78429,-2.06558 -1.90497,0 -2.88265,0.59699 -3.74814,2.28884 -0.53429,1.04421 -0.55366,3.6286 -0.55366,73.91427 0,65.54944 0.0468,72.93597 0.46972,73.86977 0.25832,0.57067 0.72373,1.2786 1.03423,1.57317 1.15138,1.09235 3.84191,1.22035 5.31256,0.25278 z m -21.77123,-22.31216 c 0.5677,-0.31919 1.30562,-0.96424 1.63981,-1.43347 0.60498,-0.84948 0.60765,-1.07254 0.60765,-51.89784 0,-50.82529 0,-51.04835 -0.60765,-51.89783 -1.63495,-2.29559 -4.71641,-2.64165 -6.58814,-0.73985 -0.56787,0.57699 -1.16498,1.54899 -1.3269,2.16 -0.40148,1.51496 -0.40596,99.45299 -0.005,100.91993 0.31876,1.16514 1.5954,2.75312 2.54736,3.16864 1.02522,0.44747 2.65665,0.32528 3.7325,-0.27958 z m 43.09095,-0.13118 c 0.55871,-0.3913 1.25118,-1.20234 1.53869,-1.80228 0.49126,-1.02493 0.52284,-4.12826 0.52284,-51.39785 0,-47.26957 -0.0314,-50.37289 -0.52284,-51.39783 -0.28751,-0.59993 -0.9937,-1.42351 -1.56921,-1.8302 -0.86139,-0.60857 -1.32804,-0.7157 -2.63767,-0.60547 -1.33168,0.11205 -1.76152,0.3126 -2.63655,1.22986 -0.6106,0.64017 -1.15834,1.6063 -1.31699,2.32314 -0.35656,1.61182 -0.3601,98.9335 0,100.5442 0.27932,1.26185 1.53019,2.89843 2.55833,3.34719 1.1716,0.51138 3.01629,0.32507 4.06704,-0.41076 z m -65.49747,-21.85483 c 0.58287,-0.16976 1.52471,-0.81153 2.09298,-1.42615 l 1.03322,-1.11751 v -28.80164 -28.8016 l -1.03597,-1.12053 c -1.70608,-1.84524 -3.73473,-2.0561 -5.84378,-0.60744 -1.69142,1.16179 -1.64163,0.2359 -1.64163,30.52957 0,22.86399 0.0737,28.1014 0.40769,28.93917 0.42362,1.06281 1.52551,1.99618 2.85543,2.41868 1.04875,0.33318 0.94273,0.33381 2.13206,-0.0126 z m 86.24714,-0.27738 c 0.65783,-0.31666 1.46513,-0.89256 1.79394,-1.27979 0.58895,-0.69333 0.59802,-1.14771 0.59802,-29.79578 v -29.09172 l -0.71773,-0.80096 c -1.12583,-1.25627 -2.98167,-1.87636 -4.4095,-1.47331 -1.30716,0.36897 -2.58914,1.59816 -3.07611,2.94941 -0.21597,0.59905 -0.31803,9.73571 -0.31803,28.45471 0,29.7312 -0.0506,28.74865 1.56691,30.31096 1.36877,1.32198 2.83914,1.5561 4.5625,0.72648 z M 558.40021,397.76653 c 1.35826,-1.38008 1.58585,-2.49657 1.58585,-7.77981 0,-5.27452 -0.22821,-6.40035 -1.57462,-7.76837 -2.0317,-2.06433 -5.20226,-1.57865 -6.65465,1.01939 -0.70694,1.26457 -0.73728,1.54241 -0.73728,6.74898 0,5.20106 0.0309,5.48557 0.73453,6.74404 0.96864,1.73271 2.26259,2.41707 4.17653,2.20896 1.13451,-0.12339 1.70152,-0.39275 2.46964,-1.17319 z m 128.02396,0.46017 c 1.6107,-1.23708 1.83363,-2.23883 1.83363,-8.23998 0,-4.60337 -0.0839,-5.65798 -0.52275,-6.55995 -1.51779,-3.12039 -5.58663,-3.32073 -7.46853,-0.36771 -0.64514,1.01244 -0.67871,1.35438 -0.67871,6.92766 0,5.5733 0.0334,5.91521 0.67871,6.92768 1.3583,2.13139 4.28033,2.75413 6.15765,1.3123 z"
           id="path1" /></g></a></g></svg>
