<?xml version="1.0" encoding="UTF-8" standalone="no"?>
<!-- Created with Inkscape (http://www.inkscape.org/) -->

<svg
   width="147.66722mm"
   height="145.29878mm"
   viewBox="0 0 147.66722 145.29878"
   version="1.1"
   id="svg1"
   xml:space="preserve"
   xmlns="http://www.w3.org/2000/svg"
   xmlns:svg="http://www.w3.org/2000/svg"><defs
     id="defs1" /><g
     id="layer1"
     transform="translate(-29.952609,-136.53765)"><path
       style="fill:#000000"
       d="M 98.664008,281.60459 C 82.325362,280.7444 67.587348,275.26164 55.420305,265.51729 41.408877,254.29581 32.276469,236.81012 30.249336,217.3228 c -0.396784,-3.81439 -0.39535,-12.99712 0.0026,-16.66875 1.583052,-14.60572 6.916627,-27.66839 15.788857,-38.66914 9.66498,-11.98368 25.065541,-20.91858 41.378422,-24.00642 7.70954,-1.45932 18.679695,-1.86262 26.326045,-0.96783 13.84527,1.62019 25.64279,6.25655 36.46682,14.33125 8.78816,6.55594 15.75576,15.28872 20.55643,25.76422 9.1351,19.93361 9.1351,44.09555 0,64.02917 -6.68751,14.59275 -17.50527,25.72143 -31.88783,32.80432 -9.56362,4.70974 -18.92044,7.06436 -30.52243,7.68087 -2.56693,0.1364 -4.96481,0.23251 -5.32861,0.21356 -0.36381,-0.0189 -2.32834,-0.1222 -4.365632,-0.22946 z m 7.222532,-8.63108 c 0.33437,-0.20985 0.83994,-0.76203 1.12349,-1.22707 0.50712,-0.8317 0.51554,-1.85526 0.51554,-62.62573 0,-60.77046 -0.008,-61.79402 -0.51554,-62.62572 -0.77852,-1.27681 -1.67506,-1.74362 -3.34875,-1.74362 -1.68575,0 -2.55087,0.50395 -3.31678,1.93207 -0.472732,0.88146 -0.489862,3.06302 -0.489862,62.39316 0,55.33215 0.0416,61.56734 0.415602,62.35559 0.22859,0.48171 0.64043,1.07929 0.91521,1.32796 1.01888,0.92208 3.3997,1.03013 4.70109,0.21336 z M 86.621085,254.13918 c 0.50237,-0.26942 1.15535,-0.81393 1.45108,-1.21002 0.53537,-0.71707 0.53768,-0.90536 0.53768,-43.80845 0,-42.90308 -0.002,-43.09137 -0.53768,-43.80844 -1.44677,-1.93778 -4.173564,-2.2299 -5.829872,-0.62454 -0.502516,0.48705 -1.030901,1.30756 -1.174188,1.82333 -0.355259,1.27881 -0.359238,83.9511 -0.0041,85.1894 0.282067,0.98351 1.411778,2.32399 2.25417,2.67472 0.907226,0.37773 2.350882,0.27458 3.30291,-0.236 z m 38.131405,-0.11072 c 0.49446,-0.33032 1.1072,-1.01493 1.36163,-1.52136 0.43468,-0.86517 0.46261,-3.48478 0.46261,-43.38639 0,-39.9016 -0.0279,-42.52121 -0.46261,-43.38639 -0.25443,-0.50642 -0.87933,-1.20163 -1.38865,-1.54492 -0.76219,-0.51371 -1.17517,-0.60415 -2.33403,-0.5111 -1.17842,0.0946 -1.55884,0.26389 -2.33311,1.03816 -0.54038,0.54039 -1.02503,1.35593 -1.16538,1.96104 -0.31558,1.36059 -0.31868,83.5126 -0.003,84.87223 0.24714,1.06516 1.35404,2.44665 2.26384,2.82545 1.03678,0.43167 2.66912,0.27441 3.5989,-0.34672 z m -57.959038,-18.4483 c 0.515778,-0.14329 1.349216,-0.68502 1.852084,-1.20385 l 0.914305,-0.94332 v -24.31228 -24.31227 l -0.916753,-0.94585 c -1.509702,-1.55762 -3.304871,-1.73562 -5.171186,-0.51276 -1.496743,0.9807 -1.452686,0.19912 -1.452686,25.77088 0,19.30014 0.06529,23.72118 0.360777,24.42838 0.374856,0.89715 1.34993,1.68503 2.526772,2.04167 0.928056,0.28125 0.834234,0.28178 1.886687,-0.0106 z m 76.320558,-0.23414 c 0.58209,-0.2673 1.29646,-0.75343 1.5875,-1.0803 0.5211,-0.58525 0.52917,-0.96881 0.52917,-25.15147 V 184.5571 l -0.63518,-0.67612 c -0.99625,-1.06045 -2.63847,-1.58388 -3.90195,-1.24366 -1.15667,0.31146 -2.29112,1.34905 -2.72208,2.48968 -0.19106,0.50567 -0.28142,8.21819 -0.28142,24.01943 0,25.09695 -0.0449,24.26756 1.38653,25.58635 1.21127,1.11592 2.51238,1.31355 4.03743,0.61324 z M 49.500446,215.68786 c 1.20192,-1.16495 1.403318,-2.10743 1.403318,-6.56715 0,-4.45238 -0.201934,-5.40272 -1.393383,-6.55752 -1.797857,-1.74255 -4.603502,-1.33257 -5.888731,0.86051 -0.625576,1.06746 -0.652435,1.30199 -0.652435,5.69701 0,4.39036 0.02742,4.63051 0.649989,5.69284 0.857152,1.46262 2.002189,2.04031 3.695843,1.86463 1.003932,-0.10415 1.505689,-0.33152 2.185399,-0.99032 z m 113.289104,0.38845 c 1.42534,-1.04425 1.6226,-1.88985 1.6226,-6.9556 0,-3.88584 -0.0744,-4.77606 -0.46261,-5.53744 -1.34312,-2.63402 -4.94365,-2.80313 -6.6089,-0.31041 -0.57094,0.85465 -0.60059,1.14328 -0.60059,5.84785 0,4.70457 0.0297,4.9932 0.60059,5.84785 1.20192,1.79917 3.78765,2.32484 5.44891,1.10775 z"
       id="path1" /></g></svg>
